<?xml version="1.0"?><svg fill="#000000" xmlns="http://www.w3.org/2000/svg" viewBox="0 0 24 24" width="24px" height="24px">    <path d="M 2 2 C 1.448 2 1 2.448 1 3 L 1 13 C 1 13.552 1.448 14 2 14 L 4 14 C 4.552 14 5 13.552 5 13 L 5 3 C 5 2.448 4.552 2 4 2 L 2 2 z M 9 2 C 7.895 2 7 2.895 7 4 L 7 13.992188 C 7 14.522187 7.2099844 15.029297 7.5839844 15.404297 L 13.113281 20.945312 C 13.696281 21.529312 14.640516 21.533078 15.228516 20.955078 C 15.595516 20.594078 15.752578 20.068453 15.642578 19.564453 L 14.648438 15 L 21 15 C 22.105 15 23 14.105 23 13 L 23 11.001953 C 23 10.730953 22.944891 10.461891 22.837891 10.212891 L 19.830078 3.2109375 C 19.515078 2.4759375 18.791188 2 17.992188 2 L 9 2 z"/></svg>