<svg fill="#000000" xmlns="http://www.w3.org/2000/svg" viewBox="0 0 24 24" width="24px" height="24px"><path d="M 11.208984 0.96679688 L 10.322266 4.8710938 L 6.7070312 7.9375 C 6.2591873 8.3173676 6 8.8763736 6 9.4628906 L 6 19 C 6 20.093063 6.9069372 21 8 21 L 16.634766 21 C 17.388427 21 18.081202 20.571852 18.419922 19.900391 L 21.835938 13.126953 C 21.946341 12.912279 22 12.675206 22 12.443359 L 22 10 C 22 8.9069372 21.093063 8 20 8 L 15.435547 8 C 15.717519 7.1230458 16 5.9865419 16 4.8632812 C 16 3.1275839 14.913925 1.9898585 13.945312 1.5078125 C 12.9767 1.0257665 12.041016 1 12.041016 1 L 11.208984 0.96679688 z M 12.748047 3.2148438 C 12.888793 3.2572208 12.90593 3.2247941 13.054688 3.2988281 C 13.586074 3.5632825 14 3.8569786 14 4.8632812 C 14 6.2517803 13.078125 8.6113281 13.078125 8.6113281 L 12.492188 10 L 20 10 L 20 12.324219 L 16.634766 19 L 8 19 L 8 9.4628906 L 12.125 5.9628906 L 12.748047 3.2148438 z M 2 8 L 2 21 L 4 21 L 4 8 L 2 8 z"/></svg>